Coordinates
version=1
nRows=32
nColumns=22
inDegrees=yes

Units are S.I. units (second, meters, Newtons, ...)
If the header above contains a line with 'inDegrees', this indicates whether rotational values are in degrees (yes) or radians (no).

endheader
time	pelvis_tilt	pelvis_list	pelvis_rotation	pelvis_tx	pelvis_ty	pelvis_tz	hip_flexion_r	hip_adduction_r	hip_rotation_r	knee_angle_r	ankle_angle_r	subtalar_angle_r	hip_flexion_l	hip_adduction_l	hip_rotation_l	knee_angle_l	ankle_angle_l	subtalar_angle_l	lumbar_extension	lumbar_bending	lumbar_rotation
      1.30000000	    -10.21308579	     -2.32434345	     22.31085788	     -0.87931724	      0.83802143	     -0.68345219	     38.36949653	     -2.84850182	    -11.62689212	     -8.71028536	      1.93755766	      6.77645880	     -6.57172247	      3.68069146	      3.11673358	    -12.97767477	     23.35111674	      2.86919645	     -0.04721099	     -0.24298715	      2.35626328
      1.31000000	    -10.44139612	     -2.37735481	     22.46279507	     -0.87140483	      0.83664020	     -0.68582218	     38.29954096	     -2.87790489	    -12.22757577	     -8.55419918	      1.30163478	      6.56519204	     -6.89472949	      3.57994994	      3.34146880	    -12.99912151	     23.06032371	      3.22746053	      0.17439568	     -0.08336830	      2.35649935
      1.32000000	    -10.61891913	     -2.48318690	     22.54366834	     -0.86328779	      0.83549201	     -0.68812517	     38.28262877	     -2.83550244	    -12.80953807	     -8.75744761	      0.38582776	      6.02497383	     -7.24022850	      3.40373919	      3.50851552	    -13.03944888	     22.67431657	      3.67837859	      0.36317293	      0.17324433	      2.41206832
      1.33000000	    -10.74252480	     -2.63741914	     22.57663027	     -0.85504581	      0.83463587	     -0.69040290	     38.30181615	     -2.73754919	    -13.35232025	     -9.23459979	     -0.78171507	      5.26920281	     -7.58150499	      3.16369758	      3.68194231	    -13.15062918	     22.22003114	      4.08901870	      0.50536021	      0.52597157	      2.52063002
      1.34000000	    -10.79667910	     -2.84689888	     22.53613493	     -0.84662957	      0.83412264	     -0.69261381	     38.33719346	     -2.54599186	    -13.79787490	     -9.92043922	     -2.05306887	      4.24937396	     -7.93611632	      2.84828951	      3.81238572	    -13.32432599	     21.67468809	      4.53625930	      0.59022121	      0.99049770	      2.67617373
      1.35000000	    -10.78410729	     -3.11667853	     22.42595038	     -0.83802835	      0.83398023	     -0.69475922	     38.37068629	     -2.24651864	    -14.10614348	    -10.74358167	     -3.26492244	      3.04174186	     -8.28342032	      2.45574968	      3.89917669	    -13.59272429	     21.02828596	      5.00077303	      0.62516951	      1.56755194	      2.87548496
      1.36000000	    -10.71656916	     -3.43396254	     22.24209449	     -0.82924111	      0.83421851	     -0.69682275	     38.39548675	     -1.83662376	    -14.20820094	    -11.66414976	     -4.25367627	      1.68221931	     -8.60777982	      2.00445164	      3.93008241	    -13.97252586	     20.26817599	      5.49102156	      0.61715723	      2.23541133	      3.11422845
      1.37000000	    -10.61846090	     -3.79116744	     21.98633304	     -0.82025807	      0.83482518	     -0.69881187	     38.40869346	     -1.32061168	    -14.07929049	    -12.64018525	     -4.89362003	      0.24401718	     -8.88104734	      1.51324251	      3.92046830	    -14.47927694	     19.35430236	      6.00561635	      0.59318309	      2.97249037	      3.38770476
      1.38000000	    -10.51573952	     -4.17193039	     21.69302090	     -0.81111412	      0.83578310	     -0.70077013	     38.40607750	     -0.73821058	    -13.77460987	    -13.63555605	     -5.16122297	     -1.18633091	     -9.07066495	      1.00732437	      3.94222557	    -15.12920050	     18.28631993	      6.54847120	      0.57682621	      3.74400126	      3.64896121
      1.39000000	    -10.41339986	     -4.56425090	     21.34395572	     -0.80180354	      0.83708235	     -0.70265884	     38.34733953	     -0.08179067	    -13.27864500	    -14.56682039	     -5.14645094	     -2.47738123	     -9.15932047	      0.49969221	      3.91954753	    -15.94922651	     17.06963342	      7.10799660	      0.56862029	      4.53242422	      3.91621271
      1.40000000	    -10.33630549	     -4.94249205	     20.97344068	     -0.79234989	      0.83868437	     -0.70454988	     38.22626497	      0.58584815	    -12.69676429	    -15.40322185	     -4.86751819	     -3.55851163	     -9.12531229	      0.02366785	      3.91382638	    -16.93576827	     15.67043596	      7.70639427	      0.59332953	      5.29636107	      4.16580861
      1.41000000	    -10.29169197	     -5.28107082	     20.59681012	     -0.78276680	      0.84055871	     -0.70647292	     38.01795354	      1.22470167	    -12.07567846	    -16.09954459	     -4.41050429	     -4.39716088	     -8.96536076	     -0.39723497	      3.91655316	    -18.08053293	     14.07178278	      8.38014102	      0.65504876	      6.00536008	      4.36610062
      1.42000000	    -10.28287664	     -5.54734366	     20.21861135	     -0.77307561	      0.84266315	     -0.70841670	     37.70063427	      1.79970969	    -11.42796260	    -16.62275584	     -3.83501190	     -4.94982034	     -8.67573664	     -0.73409942	      3.91240107	    -19.38920472	     12.27099877	      9.11854650	      0.74592781	      6.61866763	      4.51676365
      1.43000000	    -10.30825029	     -5.74168935	     19.88888333	     -0.76329159	      0.84495706	     -0.71046345	     37.27053492	      2.27015516	    -10.87825061	    -16.96899101	     -3.18527205	     -5.33420220	     -8.25752722	     -0.99525063	      3.97166295	    -20.83640218	     10.24402456	     10.04832024	      0.87855424	      7.13432861	      4.58349306
      1.44000000	    -10.35462553	     -5.84113397	     19.60455394	     -0.75345529	      0.84739270	     -0.71257927	     36.71325502	      2.62671028	    -10.38073785	    -17.13502191	     -2.49772353	     -5.56199898	     -7.71649761	     -1.16602042	      4.05598137	    -22.43362344	      8.03407198	     11.16921155	      1.02561344	      7.53048459	      4.56966298
      1.45000000	    -10.41107878	     -5.83954733	     19.37237254	     -0.74360416	      0.84991307	     -0.71474490	     36.03615905	      2.86421448	     -9.93296331	    -17.14506315	     -1.79506598	     -5.69732729	     -7.06037492	     -1.24664449	      4.16714022	    -24.17386336	      5.68205677	     12.52106814	      1.17125470	      7.79975901	      4.47745732
      1.46000000	    -10.46107266	     -5.74749762	     19.20064073	     -0.73377887	      0.85246852	     -0.71697951	     35.24485851	      2.98859301	     -9.54500422	    -17.02523448	     -1.08679119	     -5.79262498	     -6.29808884	     -1.25209578	      4.30726195	    -26.05145782	      3.26276990	     14.14789082	      1.30061364	      7.96177552	      4.31440349
      1.47000000	    -10.49029951	     -5.57899097	     19.08895558	     -0.72401923	      0.85500570	     -0.71924661	     34.35262545	      3.01808651	     -9.21531864	    -16.80471634	     -0.38255184	     -5.87438193	     -5.43814572	     -1.20125943	      4.47605148	    -28.06269501	      0.86888584	     16.05560767	      1.39757209	      8.03180380	      4.09154308
      1.48000000	    -10.48095362	     -5.36932750	     19.02906951	     -0.71434607	      0.85747675	     -0.72153034	     33.37099140	      2.99208853	     -8.94820279	    -16.51092716	      0.32011683	     -5.94727039	     -4.48983775	     -1.13637896	      4.64680879	    -30.20551957	     -1.38522287	     18.20213176	      1.45213578	      8.05574285	      3.82553406
      1.49000000	    -10.41525438	     -5.14918683	     19.00418562	     -0.70476761	      0.85984137	     -0.72379596	     32.30042187	      2.95417527	     -8.73577351	    -16.15327178	      1.04913329	     -6.00487919	     -3.46514432	     -1.10121707	      4.76707520	    -32.48510104	     -3.37300036	     20.51162014	      1.45189962	      8.07369715	      3.55401486
      1.50000000	    -10.29305591	     -4.93755771	     19.00910701	     -0.69534738	      0.86206763	     -0.72601135	     31.17416716	      2.92259138	     -8.56796733	    -15.76847328	      1.74591435	     -6.03674274	     -2.35260700	     -1.12432491	      4.81031959	    -34.91609378	     -5.01226720	     22.82822710	      1.39433159	      8.10619618	      3.26732785
      1.51000000	    -10.10895502	     -4.77938421	     19.02125639	     -0.68604680	      0.86411088	     -0.72810635	     29.99769383	      2.95907302	     -8.43490210	    -15.34766829	      2.43397557	     -6.04076853	     -1.15450234	     -1.27536083	      4.71911264	    -37.49579930	     -6.20462682	     25.01871626	      1.29150812	      8.19874794	      2.99806631
      1.52000000	     -9.84951115	     -4.68346724	     19.01338225	     -0.67684451	      0.86598369	     -0.73001820	     28.78408677	      3.08901374	     -8.34342157	    -14.93042169	      3.07426652	     -6.02774050	      0.09974038	     -1.59199716	      4.44418974	    -40.18987693	     -6.96480007	     27.02070500	      1.12594690	      8.36242508	      2.78595453
      1.53000000	     -9.54388607	     -4.69853694	     18.98118240	     -0.66770012	      0.86762120	     -0.73172553	     27.53843423	      3.36317259	     -8.24940709	    -14.44154278	      3.68344260	     -6.00440861	      1.43757737	     -2.12979842	      4.00325396	    -42.96167697	     -7.21776350	     28.63664412	      0.95857873	      8.63949400	      2.62088986
      1.54000000	     -9.16803758	     -4.78353200	     18.87799525	     -0.65858335	      0.86909586	     -0.73315396	     26.28049468	      3.76548717	     -8.14137260	    -13.99234159	      4.25980392	     -5.99273024	      2.78127200	     -2.86611040	      3.37685760	    -45.71247796	     -7.11305816	     29.90030355	      0.73504585	      8.99243181	      2.56915640
      1.55000000	     -8.76473482	     -4.93241708	     18.71005411	     -0.64945767	      0.87039419	     -0.73430668	     25.00759963	      4.28084073	     -7.97715859	    -13.50446671	      4.79521027	     -5.99938657	      4.14174838	     -3.77186868	      2.64026947	    -48.36375099	     -6.67966809	     30.67447993	      0.50936395	      9.39326564	      2.60905810
      1.56000000	     -8.36275665	     -5.09882563	     18.43054820	     -0.64031567	      0.87151815	     -0.73511893	     23.77405526	      4.86449583	     -7.71802605	    -13.05855923	      5.30007622	     -5.98562030	      5.50287075	     -4.79209404	      1.76468914	    -50.85227700	     -6.00615058	     30.89922070	      0.28521728	      9.78019425	      2.78832089
      1.57000000	     -7.93776851	     -5.29467696	     18.11183320	     -0.63115228	      0.87256396	     -0.73571456	     22.50142411	      5.50932454	     -7.39673962	    -12.55660373	      5.75618421	     -6.04777610	      6.83770783	     -5.91541653	      0.90111524	    -53.13827928	     -5.19823748	     30.84626754	      0.05463991	     10.17758613	      3.01387510
      1.58000000	     -7.50088189	     -5.46467006	     17.69305536	     -0.62193760	      0.87354066	     -0.73600344	     21.24856344	      6.16879469	     -7.01354541	    -12.13176059	      6.21093411	     -6.20478863	      8.10558338	     -7.08731709	     -0.03588541	    -55.18157019	     -4.25750759	     30.22068523	     -0.20317779	     10.51605877	      3.35617172
      1.59000000	     -7.12300422	     -5.61883675	     17.17240386	     -0.61271792	      0.87438166	     -0.73598042	     20.05826195	      6.82776982	     -6.47326378	    -11.72136767	      6.62323119	     -6.30484102	      9.38665429	     -8.27226337	     -0.99245387	    -56.98584806	     -3.27706065	     29.40131893	     -0.40668320	     10.78214980	      3.80037586
      1.60000000	     -6.73225909	     -5.70698582	     16.57069602	     -0.60351070	      0.87519802	     -0.73573587	     18.91515746	      7.43053713	     -5.90705743	    -11.47910004	      7.09288993	     -6.49681943	     10.57524742	     -9.42077137	     -1.95603593	    -58.53296159	     -2.20668559	     28.03800760	     -0.65545729	     10.95517121	      4.31158441
      1.61000000	     -6.38409243	     -5.77695326	     15.89453803	     -0.59432424	      0.87593339	     -0.73526762	     17.81869623	      8.01225007	     -5.23060574	    -11.26261969	      7.53356984	     -6.65979319	     11.75200628	    -10.54114209	     -2.87060117	    -59.83361646	     -1.13233175	     26.62311924	     -0.86601276	     11.06643895	      4.88611195
